<?xml version="1.0" standalone="no"?>
<!DOCTYPE svg PUBLIC "-//W3C//DTD SVG 20010904//EN"
 "http://www.w3.org/TR/2001/REC-SVG-20010904/DTD/svg10.dtd">
<svg version="1.0" xmlns="http://www.w3.org/2000/svg"
 width="300.000000pt" height="190.000000pt" viewBox="0 0 300.000000 190.000000"
 preserveAspectRatio="xMidYMid meet">
<metadata>
Created by potrace 1.10, written by Peter Selinger 2001-2011
</metadata>
<g transform="translate(0.000000,190.000000) scale(0.100000,-0.100000)"
fill="#000000" stroke="none">
<path d="M907 1402 c-26 -29 -23 -113 6 -139 12 -12 31 -23 42 -25 19 -3 20
-12 23 -305 l2 -303 -27 -6 c-49 -12 -63 -32 -63 -89 0 -41 5 -56 23 -73 20
-19 35 -22 113 -22 84 0 92 2 115 26 l24 26 0 443 c0 532 13 485 -140 485 -86
0 -104 -3 -118 -18z m216 -471 l2 -451 -103 0 -103 0 3 52 3 52 50 -3 50 -2 0
350 0 351 -52 0 -53 0 0 50 0 49 98 3 c53 2 99 2 100 1 2 -1 5 -204 5 -452z"/>
<path d="M1201 1394 c-21 -26 -21 -37 -21 -460 l0 -432 26 -31 c51 -61 154
-29 154 47 0 20 3 54 6 75 l7 37 61 -67 c93 -102 127 -123 197 -123 47 0 63 5
86 24 l27 24 -28 40 c-41 60 -200 210 -230 218 -20 5 -35 -1 -61 -20 -19 -15
-35 -31 -35 -37 0 -5 -4 -9 -10 -9 -21 0 -8 23 41 71 50 49 52 50 71 32 11
-10 85 -84 165 -164 79 -80 157 -153 173 -162 20 -12 51 -17 108 -17 75 0 82
2 101 26 24 31 28 100 7 129 -9 13 -32 21 -76 26 l-63 7 -148 148 c-82 82
-149 153 -149 159 0 5 67 76 148 157 l148 148 51 0 c73 0 103 26 103 89 0 26
-7 56 -16 69 -14 20 -23 22 -107 22 -51 0 -98 -4 -106 -9 -8 -5 -113 -107
-232 -227 -120 -120 -221 -216 -223 -213 -2 2 -7 94 -10 203 -7 240 -9 246
-91 246 -46 0 -56 -4 -74 -26z m119 -277 l-1 -266 263 264 263 265 85 1 c47 1
86 -1 88 -5 1 -3 2 -26 2 -51 l0 -45 -63 0 -62 0 -175 -175 -175 -175 175
-175 175 -176 64 2 63 2 2 -51 1 -52 -85 0 -85 0 -190 190 -190 190 -78 -78
-78 -77 3 -112 3 -113 -52 0 -53 0 0 448 c0 247 2 451 4 453 2 2 25 3 51 3
l47 -1 -2 -266z m324 -635 l-67 -3 -87 85 -86 85 35 35 36 36 118 -117 117
-118 -66 -3z"/>
<path d="M1583 1048 c-269 -269 -293 -291 -310 -277 -16 13 -17 13 -4 -3 11
-15 11 -21 0 -35 -27 -35 17 6 107 98 48 49 92 89 98 89 6 0 47 -35 91 -77
l80 -78 -82 85 -83 85 88 88 c48 48 92 84 97 80 4 -4 5 -3 2 3 -3 6 35 52 86
101 100 98 133 133 126 133 -3 0 -136 -131 -296 -292z"/>
<path d="M1483 1348 c-89 -86 -103 -111 -103 -177 0 -63 34 -111 69 -96 29 14
260 244 277 277 13 25 12 30 -6 48 -16 16 -33 20 -91 20 l-71 0 -75 -72z m227
38 c0 -2 -65 -70 -145 -152 l-145 -148 0 75 0 75 73 71 c71 71 73 72 132 76
33 2 66 4 73 5 6 1 12 0 12 -2z"/>
</g>
</svg>
